# xmcd CD database file
#
# Track frame offsets:
#	150
#	24305
#	38320
#	49317
#	72986
#	98487
#	115566
#	133198
#	152217
#	163700
#	185097
#	205360
#	231140
#	249795
#	267866
#	285046
#
# Disc length: 4081 seconds
#
# Revision: 0
# Processed by: cddbd v1.5.1PL0 Copyright (c) Steve Scherf et al.
# Submitted via: CDex 1.51
#
DISCID=cd0fef10
DTITLE=Stephane Grappelli - Paris Jazz Concert, Olympia, Jan.24th, 1988 (Delta Music, 2002)
DYEAR=2002
DGENRE=Jazz
TTITLE0=Stephane Grappelli - Pick Yourself Up
TTITLE1=Stephane Grappelli - Chicago
TTITLE2=Stephane Grappelli - Shine
TTITLE3=Stephane Grappelli - I Can't Give You Anything But Love
TTITLE4=Stephane Grappelli - Love For Sale
TTITLE5=Stephane Grappelli - I Get A Kick Out Of You
TTITLE6=Stephane Grappelli - Swing 42
TTITLE7=Stephane Grappelli - La Chanson Des Rues
TTITLE8=Stephane Grappelli - Chatanooga Choochoo
TTITLE9=Stephane Grappelli - Someone To Watch Over Me - I Got Rhythm
TTITLE10=Stephane Grappelli - Old Man River
TTITLE11=Stephane Grappelli - Willow Weep For Me
TTITLE12=Stephane Grappelli - It's Wonderful
TTITLE13=Stephane Grappelli - Lady Be Good
TTITLE14=Stephane Grappelli - Nuages - Daphne
TTITLE15=Stephane Grappelli - Honeysuckle Rose
EXTD=YEAR: 2002
EXTT0=
EXTT1=
EXTT2=
EXTT3=
EXTT4=
EXTT5=
EXTT6=
EXTT7=
EXTT8=
EXTT9=
EXTT10=
EXTT11=
EXTT12=
EXTT13=
EXTT14=
EXTT15=
PLAYORDER=
